<?xml version="1.0" encoding="UTF-8" standalone="no"?>
<!DOCTYPE svg PUBLIC "-//W3C//DTD SVG 1.1//EN"
 "http://www.w3.org/Graphics/SVG/1.1/DTD/svg11.dtd">
<!-- Generated by graphviz version 2.38.0 (20140413.2041)
 -->
<!-- Title: snakemake_dag Pages: 1 -->
<svg width="1274pt" height="406pt"
 viewBox="0.00 0.00 1273.83 406.00" xmlns="http://www.w3.org/2000/svg" xmlns:xlink="http://www.w3.org/1999/xlink">
<g id="graph0" class="graph" transform="scale(1 1) rotate(0) translate(4 402)">
<title>snakemake_dag</title>
<polygon fill="white" stroke="none" points="-4,4 -4,-402 1269.83,-402 1269.83,4 -4,4"/>
<!-- 0 -->
<g id="node1" class="node"><title>0</title>
<path fill="none" stroke="#afd856" stroke-width="2" d="M647.414,-36C647.414,-36 617.414,-36 617.414,-36 611.414,-36 605.414,-30 605.414,-24 605.414,-24 605.414,-12 605.414,-12 605.414,-6 611.414,-0 617.414,-0 617.414,-0 647.414,-0 647.414,-0 653.414,-0 659.414,-6 659.414,-12 659.414,-12 659.414,-24 659.414,-24 659.414,-30 653.414,-36 647.414,-36"/>
<text text-anchor="middle" x="632.414" y="-15" font-family="sans" font-size="10.00">all</text>
</g>
<!-- 1 -->
<g id="node2" class="node"><title>1</title>
<path fill="none" stroke="#59d856" stroke-width="2" d="M76.7409,-108C76.7409,-108 12.0863,-108 12.0863,-108 6.08626,-108 0.0862579,-102 0.0862579,-96 0.0862579,-96 0.0862579,-84 0.0862579,-84 0.0862579,-78 6.08626,-72 12.0863,-72 12.0863,-72 76.7409,-72 76.7409,-72 82.7409,-72 88.7409,-78 88.7409,-84 88.7409,-84 88.7409,-96 88.7409,-96 88.7409,-102 82.7409,-108 76.7409,-108"/>
<text text-anchor="middle" x="44.4136" y="-92" font-family="sans" font-size="10.00">sniffles_SV</text>
<text text-anchor="middle" x="44.4136" y="-82" font-family="sans" font-size="10.00">sniffles_depth: 3</text>
</g>
<!-- 1&#45;&gt;0 -->
<g id="edge1" class="edge"><title>1&#45;&gt;0</title>
<path fill="none" stroke="grey" stroke-width="2" d="M89.0161,-74.1795C92.1777,-73.3697 95.3323,-72.6309 98.4136,-72 282.188,-34.372 507.223,-23.1477 594.924,-20.0703"/>
<polygon fill="grey" stroke="grey" stroke-width="2" points="595.291,-23.5601 605.168,-19.7265 595.057,-16.564 595.291,-23.5601"/>
</g>
<!-- 2 -->
<g id="node3" class="node"><title>2</title>
<path fill="none" stroke="#59d856" stroke-width="2" d="M183.741,-108C183.741,-108 119.086,-108 119.086,-108 113.086,-108 107.086,-102 107.086,-96 107.086,-96 107.086,-84 107.086,-84 107.086,-78 113.086,-72 119.086,-72 119.086,-72 183.741,-72 183.741,-72 189.741,-72 195.741,-78 195.741,-84 195.741,-84 195.741,-96 195.741,-96 195.741,-102 189.741,-108 183.741,-108"/>
<text text-anchor="middle" x="151.414" y="-92" font-family="sans" font-size="10.00">sniffles_SV</text>
<text text-anchor="middle" x="151.414" y="-82" font-family="sans" font-size="10.00">sniffles_depth: 5</text>
</g>
<!-- 2&#45;&gt;0 -->
<g id="edge2" class="edge"><title>2&#45;&gt;0</title>
<path fill="none" stroke="grey" stroke-width="2" d="M196.034,-74.2663C199.192,-73.4358 202.34,-72.6687 205.414,-72 347.339,-41.1197 519.998,-26.5737 594.833,-21.3634"/>
<polygon fill="grey" stroke="grey" stroke-width="2" points="595.409,-24.8324 605.149,-20.6616 594.934,-17.8485 595.409,-24.8324"/>
</g>
<!-- 3 -->
<g id="node4" class="node"><title>3</title>
<path fill="none" stroke="#59d856" stroke-width="2" d="M290.741,-108C290.741,-108 226.086,-108 226.086,-108 220.086,-108 214.086,-102 214.086,-96 214.086,-96 214.086,-84 214.086,-84 214.086,-78 220.086,-72 226.086,-72 226.086,-72 290.741,-72 290.741,-72 296.741,-72 302.741,-78 302.741,-84 302.741,-84 302.741,-96 302.741,-96 302.741,-102 296.741,-108 290.741,-108"/>
<text text-anchor="middle" x="258.414" y="-92" font-family="sans" font-size="10.00">sniffles_SV</text>
<text text-anchor="middle" x="258.414" y="-82" font-family="sans" font-size="10.00">sniffles_depth: 7</text>
</g>
<!-- 3&#45;&gt;0 -->
<g id="edge3" class="edge"><title>3&#45;&gt;0</title>
<path fill="none" stroke="grey" stroke-width="2" d="M302.772,-74.4907C306.02,-73.5958 309.259,-72.7538 312.414,-72 413.425,-47.8621 534.976,-30.9959 595.047,-23.4516"/>
<polygon fill="grey" stroke="grey" stroke-width="2" points="595.692,-26.8986 605.185,-22.194 594.83,-19.9518 595.692,-26.8986"/>
</g>
<!-- 4 -->
<g id="node5" class="node"><title>4</title>
<path fill="none" stroke="#59d856" stroke-width="2" d="M397.741,-108C397.741,-108 333.086,-108 333.086,-108 327.086,-108 321.086,-102 321.086,-96 321.086,-96 321.086,-84 321.086,-84 321.086,-78 327.086,-72 333.086,-72 333.086,-72 397.741,-72 397.741,-72 403.741,-72 409.741,-78 409.741,-84 409.741,-84 409.741,-96 409.741,-96 409.741,-102 403.741,-108 397.741,-108"/>
<text text-anchor="middle" x="365.414" y="-92" font-family="sans" font-size="10.00">sniffles_SV</text>
<text text-anchor="middle" x="365.414" y="-82" font-family="sans" font-size="10.00">sniffles_depth: 3</text>
</g>
<!-- 4&#45;&gt;0 -->
<g id="edge4" class="edge"><title>4&#45;&gt;0</title>
<path fill="none" stroke="grey" stroke-width="2" d="M409.846,-74.7755C413.077,-73.8138 416.292,-72.879 419.414,-72 480.749,-54.732 552.832,-37.4102 595.456,-27.4721"/>
<polygon fill="grey" stroke="grey" stroke-width="2" points="596.426,-30.84 605.375,-25.1686 594.843,-24.0214 596.426,-30.84"/>
</g>
<!-- 5 -->
<g id="node6" class="node"><title>5</title>
<path fill="none" stroke="#59d856" stroke-width="2" d="M504.741,-108C504.741,-108 440.086,-108 440.086,-108 434.086,-108 428.086,-102 428.086,-96 428.086,-96 428.086,-84 428.086,-84 428.086,-78 434.086,-72 440.086,-72 440.086,-72 504.741,-72 504.741,-72 510.741,-72 516.741,-78 516.741,-84 516.741,-84 516.741,-96 516.741,-96 516.741,-102 510.741,-108 504.741,-108"/>
<text text-anchor="middle" x="472.414" y="-92" font-family="sans" font-size="10.00">sniffles_SV</text>
<text text-anchor="middle" x="472.414" y="-82" font-family="sans" font-size="10.00">sniffles_depth: 5</text>
</g>
<!-- 5&#45;&gt;0 -->
<g id="edge5" class="edge"><title>5&#45;&gt;0</title>
<path fill="none" stroke="grey" stroke-width="2" d="M511.554,-71.8761C537.313,-60.6065 570.798,-45.957 595.988,-34.9364"/>
<polygon fill="grey" stroke="grey" stroke-width="2" points="597.444,-38.1197 605.202,-30.9049 594.638,-31.7066 597.444,-38.1197"/>
</g>
<!-- 6 -->
<g id="node7" class="node"><title>6</title>
<path fill="none" stroke="#59d856" stroke-width="2" d="M611.741,-108C611.741,-108 547.086,-108 547.086,-108 541.086,-108 535.086,-102 535.086,-96 535.086,-96 535.086,-84 535.086,-84 535.086,-78 541.086,-72 547.086,-72 547.086,-72 611.741,-72 611.741,-72 617.741,-72 623.741,-78 623.741,-84 623.741,-84 623.741,-96 623.741,-96 623.741,-102 617.741,-108 611.741,-108"/>
<text text-anchor="middle" x="579.414" y="-92" font-family="sans" font-size="10.00">sniffles_SV</text>
<text text-anchor="middle" x="579.414" y="-82" font-family="sans" font-size="10.00">sniffles_depth: 7</text>
</g>
<!-- 6&#45;&gt;0 -->
<g id="edge6" class="edge"><title>6&#45;&gt;0</title>
<path fill="none" stroke="grey" stroke-width="2" d="M592.515,-71.6966C598.805,-63.3893 606.461,-53.2771 613.378,-44.1407"/>
<polygon fill="grey" stroke="grey" stroke-width="2" points="616.217,-46.1897 619.463,-36.1043 610.636,-41.9642 616.217,-46.1897"/>
</g>
<!-- 7 -->
<g id="node8" class="node"><title>7</title>
<path fill="none" stroke="#59d856" stroke-width="2" d="M718.741,-108C718.741,-108 654.086,-108 654.086,-108 648.086,-108 642.086,-102 642.086,-96 642.086,-96 642.086,-84 642.086,-84 642.086,-78 648.086,-72 654.086,-72 654.086,-72 718.741,-72 718.741,-72 724.741,-72 730.741,-78 730.741,-84 730.741,-84 730.741,-96 730.741,-96 730.741,-102 724.741,-108 718.741,-108"/>
<text text-anchor="middle" x="686.414" y="-92" font-family="sans" font-size="10.00">sniffles_SV</text>
<text text-anchor="middle" x="686.414" y="-82" font-family="sans" font-size="10.00">sniffles_depth: 3</text>
</g>
<!-- 7&#45;&gt;0 -->
<g id="edge7" class="edge"><title>7&#45;&gt;0</title>
<path fill="none" stroke="grey" stroke-width="2" d="M673.065,-71.6966C666.657,-63.3893 658.856,-53.2771 651.808,-44.1407"/>
<polygon fill="grey" stroke="grey" stroke-width="2" points="654.488,-41.8844 645.608,-36.1043 648.945,-46.16 654.488,-41.8844"/>
</g>
<!-- 8 -->
<g id="node9" class="node"><title>8</title>
<path fill="none" stroke="#59d856" stroke-width="2" d="M825.741,-108C825.741,-108 761.086,-108 761.086,-108 755.086,-108 749.086,-102 749.086,-96 749.086,-96 749.086,-84 749.086,-84 749.086,-78 755.086,-72 761.086,-72 761.086,-72 825.741,-72 825.741,-72 831.741,-72 837.741,-78 837.741,-84 837.741,-84 837.741,-96 837.741,-96 837.741,-102 831.741,-108 825.741,-108"/>
<text text-anchor="middle" x="793.414" y="-92" font-family="sans" font-size="10.00">sniffles_SV</text>
<text text-anchor="middle" x="793.414" y="-82" font-family="sans" font-size="10.00">sniffles_depth: 5</text>
</g>
<!-- 8&#45;&gt;0 -->
<g id="edge8" class="edge"><title>8&#45;&gt;0</title>
<path fill="none" stroke="grey" stroke-width="2" d="M754.029,-71.8761C728.109,-60.6065 694.415,-45.957 669.067,-34.9364"/>
<polygon fill="grey" stroke="grey" stroke-width="2" points="670.361,-31.6825 659.795,-30.9049 667.57,-38.102 670.361,-31.6825"/>
</g>
<!-- 9 -->
<g id="node10" class="node"><title>9</title>
<path fill="none" stroke="#59d856" stroke-width="2" d="M932.741,-108C932.741,-108 868.086,-108 868.086,-108 862.086,-108 856.086,-102 856.086,-96 856.086,-96 856.086,-84 856.086,-84 856.086,-78 862.086,-72 868.086,-72 868.086,-72 932.741,-72 932.741,-72 938.741,-72 944.741,-78 944.741,-84 944.741,-84 944.741,-96 944.741,-96 944.741,-102 938.741,-108 932.741,-108"/>
<text text-anchor="middle" x="900.414" y="-92" font-family="sans" font-size="10.00">sniffles_SV</text>
<text text-anchor="middle" x="900.414" y="-82" font-family="sans" font-size="10.00">sniffles_depth: 7</text>
</g>
<!-- 9&#45;&gt;0 -->
<g id="edge9" class="edge"><title>9&#45;&gt;0</title>
<path fill="none" stroke="grey" stroke-width="2" d="M855.982,-74.7716C852.751,-73.8108 849.536,-72.8773 846.414,-72 784.798,-54.6894 712.373,-37.3807 669.548,-27.4568"/>
<polygon fill="grey" stroke="grey" stroke-width="2" points="670.112,-23.995 659.581,-25.1568 668.538,-30.8158 670.112,-23.995"/>
</g>
<!-- 10 -->
<g id="node11" class="node"><title>10</title>
<path fill="none" stroke="#59d856" stroke-width="2" d="M1039.74,-108C1039.74,-108 975.086,-108 975.086,-108 969.086,-108 963.086,-102 963.086,-96 963.086,-96 963.086,-84 963.086,-84 963.086,-78 969.086,-72 975.086,-72 975.086,-72 1039.74,-72 1039.74,-72 1045.74,-72 1051.74,-78 1051.74,-84 1051.74,-84 1051.74,-96 1051.74,-96 1051.74,-102 1045.74,-108 1039.74,-108"/>
<text text-anchor="middle" x="1007.41" y="-92" font-family="sans" font-size="10.00">sniffles_SV</text>
<text text-anchor="middle" x="1007.41" y="-82" font-family="sans" font-size="10.00">sniffles_depth: 3</text>
</g>
<!-- 10&#45;&gt;0 -->
<g id="edge10" class="edge"><title>10&#45;&gt;0</title>
<path fill="none" stroke="grey" stroke-width="2" d="M963.056,-74.4889C959.807,-73.5944 956.568,-72.753 953.414,-72 852.089,-47.8142 730.157,-30.9691 669.897,-23.4404"/>
<polygon fill="grey" stroke="grey" stroke-width="2" points="670.081,-19.9366 659.728,-22.1855 669.224,-26.8839 670.081,-19.9366"/>
</g>
<!-- 11 -->
<g id="node12" class="node"><title>11</title>
<path fill="none" stroke="#59d856" stroke-width="2" d="M1146.74,-108C1146.74,-108 1082.09,-108 1082.09,-108 1076.09,-108 1070.09,-102 1070.09,-96 1070.09,-96 1070.09,-84 1070.09,-84 1070.09,-78 1076.09,-72 1082.09,-72 1082.09,-72 1146.74,-72 1146.74,-72 1152.74,-72 1158.74,-78 1158.74,-84 1158.74,-84 1158.74,-96 1158.74,-96 1158.74,-102 1152.74,-108 1146.74,-108"/>
<text text-anchor="middle" x="1114.41" y="-92" font-family="sans" font-size="10.00">sniffles_SV</text>
<text text-anchor="middle" x="1114.41" y="-82" font-family="sans" font-size="10.00">sniffles_depth: 5</text>
</g>
<!-- 11&#45;&gt;0 -->
<g id="edge11" class="edge"><title>11&#45;&gt;0</title>
<path fill="none" stroke="grey" stroke-width="2" d="M1069.79,-74.2653C1066.64,-73.435 1063.49,-72.6682 1060.41,-72 918.156,-41.0688 745.092,-26.5492 670.083,-21.3546"/>
<polygon fill="grey" stroke="grey" stroke-width="2" points="669.956,-17.8381 659.743,-20.655 669.483,-24.8221 669.956,-17.8381"/>
</g>
<!-- 12 -->
<g id="node13" class="node"><title>12</title>
<path fill="none" stroke="#59d856" stroke-width="2" d="M1253.74,-108C1253.74,-108 1189.09,-108 1189.09,-108 1183.09,-108 1177.09,-102 1177.09,-96 1177.09,-96 1177.09,-84 1177.09,-84 1177.09,-78 1183.09,-72 1189.09,-72 1189.09,-72 1253.74,-72 1253.74,-72 1259.74,-72 1265.74,-78 1265.74,-84 1265.74,-84 1265.74,-96 1265.74,-96 1265.74,-102 1259.74,-108 1253.74,-108"/>
<text text-anchor="middle" x="1221.41" y="-92" font-family="sans" font-size="10.00">sniffles_SV</text>
<text text-anchor="middle" x="1221.41" y="-82" font-family="sans" font-size="10.00">sniffles_depth: 7</text>
</g>
<!-- 12&#45;&gt;0 -->
<g id="edge12" class="edge"><title>12&#45;&gt;0</title>
<path fill="none" stroke="grey" stroke-width="2" d="M1176.81,-74.1789C1173.65,-73.3692 1170.49,-72.6306 1167.41,-72 983.075,-34.2742 757.301,-23.0985 669.66,-20.0522"/>
<polygon fill="grey" stroke="grey" stroke-width="2" points="669.538,-16.5463 659.427,-19.7121 669.305,-23.5425 669.538,-16.5463"/>
</g>
<!-- 13 -->
<g id="node14" class="node"><title>13</title>
<path fill="none" stroke="#56a9d8" stroke-width="2" d="M183.665,-180C183.665,-180 119.162,-180 119.162,-180 113.162,-180 107.162,-174 107.162,-168 107.162,-168 107.162,-156 107.162,-156 107.162,-150 113.162,-144 119.162,-144 119.162,-144 183.665,-144 183.665,-144 189.665,-144 195.665,-150 195.665,-156 195.665,-156 195.665,-168 195.665,-168 195.665,-174 189.665,-180 183.665,-180"/>
<text text-anchor="middle" x="151.414" y="-159" font-family="sans" font-size="10.00">samtools_calmd</text>
</g>
<!-- 13&#45;&gt;1 -->
<g id="edge13" class="edge"><title>13&#45;&gt;1</title>
<path fill="none" stroke="grey" stroke-width="2" d="M125.238,-143.876C111.378,-134.808 94.1721,-123.552 79.2026,-113.759"/>
<polygon fill="grey" stroke="grey" stroke-width="2" points="80.9738,-110.735 70.6893,-108.19 77.1415,-116.593 80.9738,-110.735"/>
</g>
<!-- 13&#45;&gt;2 -->
<g id="edge14" class="edge"><title>13&#45;&gt;2</title>
<path fill="none" stroke="grey" stroke-width="2" d="M151.414,-143.697C151.414,-135.983 151.414,-126.712 151.414,-118.112"/>
<polygon fill="grey" stroke="grey" stroke-width="2" points="154.914,-118.104 151.414,-108.104 147.914,-118.104 154.914,-118.104"/>
</g>
<!-- 13&#45;&gt;3 -->
<g id="edge15" class="edge"><title>13&#45;&gt;3</title>
<path fill="none" stroke="grey" stroke-width="2" d="M177.589,-143.876C191.449,-134.808 208.655,-123.552 223.625,-113.759"/>
<polygon fill="grey" stroke="grey" stroke-width="2" points="225.686,-116.593 232.138,-108.19 221.853,-110.735 225.686,-116.593"/>
</g>
<!-- 14 -->
<g id="node15" class="node"><title>14</title>
<path fill="none" stroke="#56a9d8" stroke-width="2" d="M504.665,-180C504.665,-180 440.162,-180 440.162,-180 434.162,-180 428.162,-174 428.162,-168 428.162,-168 428.162,-156 428.162,-156 428.162,-150 434.162,-144 440.162,-144 440.162,-144 504.665,-144 504.665,-144 510.665,-144 516.665,-150 516.665,-156 516.665,-156 516.665,-168 516.665,-168 516.665,-174 510.665,-180 504.665,-180"/>
<text text-anchor="middle" x="472.414" y="-159" font-family="sans" font-size="10.00">samtools_calmd</text>
</g>
<!-- 14&#45;&gt;4 -->
<g id="edge16" class="edge"><title>14&#45;&gt;4</title>
<path fill="none" stroke="grey" stroke-width="2" d="M446.238,-143.876C432.378,-134.808 415.172,-123.552 400.203,-113.759"/>
<polygon fill="grey" stroke="grey" stroke-width="2" points="401.974,-110.735 391.689,-108.19 398.142,-116.593 401.974,-110.735"/>
</g>
<!-- 14&#45;&gt;5 -->
<g id="edge17" class="edge"><title>14&#45;&gt;5</title>
<path fill="none" stroke="grey" stroke-width="2" d="M472.414,-143.697C472.414,-135.983 472.414,-126.712 472.414,-118.112"/>
<polygon fill="grey" stroke="grey" stroke-width="2" points="475.914,-118.104 472.414,-108.104 468.914,-118.104 475.914,-118.104"/>
</g>
<!-- 14&#45;&gt;6 -->
<g id="edge18" class="edge"><title>14&#45;&gt;6</title>
<path fill="none" stroke="grey" stroke-width="2" d="M498.589,-143.876C512.449,-134.808 529.655,-123.552 544.625,-113.759"/>
<polygon fill="grey" stroke="grey" stroke-width="2" points="546.686,-116.593 553.138,-108.19 542.853,-110.735 546.686,-116.593"/>
</g>
<!-- 15 -->
<g id="node16" class="node"><title>15</title>
<path fill="none" stroke="#56a9d8" stroke-width="2" d="M825.665,-180C825.665,-180 761.162,-180 761.162,-180 755.162,-180 749.162,-174 749.162,-168 749.162,-168 749.162,-156 749.162,-156 749.162,-150 755.162,-144 761.162,-144 761.162,-144 825.665,-144 825.665,-144 831.665,-144 837.665,-150 837.665,-156 837.665,-156 837.665,-168 837.665,-168 837.665,-174 831.665,-180 825.665,-180"/>
<text text-anchor="middle" x="793.414" y="-159" font-family="sans" font-size="10.00">samtools_calmd</text>
</g>
<!-- 15&#45;&gt;7 -->
<g id="edge19" class="edge"><title>15&#45;&gt;7</title>
<path fill="none" stroke="grey" stroke-width="2" d="M767.238,-143.876C753.378,-134.808 736.172,-123.552 721.203,-113.759"/>
<polygon fill="grey" stroke="grey" stroke-width="2" points="722.974,-110.735 712.689,-108.19 719.142,-116.593 722.974,-110.735"/>
</g>
<!-- 15&#45;&gt;8 -->
<g id="edge20" class="edge"><title>15&#45;&gt;8</title>
<path fill="none" stroke="grey" stroke-width="2" d="M793.414,-143.697C793.414,-135.983 793.414,-126.712 793.414,-118.112"/>
<polygon fill="grey" stroke="grey" stroke-width="2" points="796.914,-118.104 793.414,-108.104 789.914,-118.104 796.914,-118.104"/>
</g>
<!-- 15&#45;&gt;9 -->
<g id="edge21" class="edge"><title>15&#45;&gt;9</title>
<path fill="none" stroke="grey" stroke-width="2" d="M819.589,-143.876C833.449,-134.808 850.655,-123.552 865.625,-113.759"/>
<polygon fill="grey" stroke="grey" stroke-width="2" points="867.686,-116.593 874.138,-108.19 863.853,-110.735 867.686,-116.593"/>
</g>
<!-- 16 -->
<g id="node17" class="node"><title>16</title>
<path fill="none" stroke="#56a9d8" stroke-width="2" d="M1146.66,-180C1146.66,-180 1082.16,-180 1082.16,-180 1076.16,-180 1070.16,-174 1070.16,-168 1070.16,-168 1070.16,-156 1070.16,-156 1070.16,-150 1076.16,-144 1082.16,-144 1082.16,-144 1146.66,-144 1146.66,-144 1152.66,-144 1158.66,-150 1158.66,-156 1158.66,-156 1158.66,-168 1158.66,-168 1158.66,-174 1152.66,-180 1146.66,-180"/>
<text text-anchor="middle" x="1114.41" y="-159" font-family="sans" font-size="10.00">samtools_calmd</text>
</g>
<!-- 16&#45;&gt;10 -->
<g id="edge22" class="edge"><title>16&#45;&gt;10</title>
<path fill="none" stroke="grey" stroke-width="2" d="M1088.24,-143.876C1074.38,-134.808 1057.17,-123.552 1042.2,-113.759"/>
<polygon fill="grey" stroke="grey" stroke-width="2" points="1043.97,-110.735 1033.69,-108.19 1040.14,-116.593 1043.97,-110.735"/>
</g>
<!-- 16&#45;&gt;11 -->
<g id="edge23" class="edge"><title>16&#45;&gt;11</title>
<path fill="none" stroke="grey" stroke-width="2" d="M1114.41,-143.697C1114.41,-135.983 1114.41,-126.712 1114.41,-118.112"/>
<polygon fill="grey" stroke="grey" stroke-width="2" points="1117.91,-118.104 1114.41,-108.104 1110.91,-118.104 1117.91,-118.104"/>
</g>
<!-- 16&#45;&gt;12 -->
<g id="edge24" class="edge"><title>16&#45;&gt;12</title>
<path fill="none" stroke="grey" stroke-width="2" d="M1140.59,-143.876C1154.45,-134.808 1171.66,-123.552 1186.62,-113.759"/>
<polygon fill="grey" stroke="grey" stroke-width="2" points="1188.69,-116.593 1195.14,-108.19 1184.85,-110.735 1188.69,-116.593"/>
</g>
<!-- 17 -->
<g id="node18" class="node"><title>17</title>
<path fill="none" stroke="#56d8a9" stroke-width="2" d="M169.315,-324C169.315,-324 133.512,-324 133.512,-324 127.512,-324 121.512,-318 121.512,-312 121.512,-312 121.512,-300 121.512,-300 121.512,-294 127.512,-288 133.512,-288 133.512,-288 169.315,-288 169.315,-288 175.315,-288 181.315,-294 181.315,-300 181.315,-300 181.315,-312 181.315,-312 181.315,-318 175.315,-324 169.315,-324"/>
<text text-anchor="middle" x="151.414" y="-303" font-family="sans" font-size="10.00">BAM_sort</text>
</g>
<!-- 17&#45;&gt;13 -->
<g id="edge25" class="edge"><title>17&#45;&gt;13</title>
<path fill="none" stroke="grey" stroke-width="2" d="M146.544,-287.979C143.849,-277.665 140.776,-264.189 139.414,-252 137.636,-236.099 137.636,-231.901 139.414,-216 140.372,-207.43 142.175,-198.223 144.099,-189.926"/>
<polygon fill="grey" stroke="grey" stroke-width="2" points="147.545,-190.568 146.544,-180.021 140.749,-188.89 147.545,-190.568"/>
</g>
<!-- 18 -->
<g id="node19" class="node"><title>18</title>
<path fill="none" stroke="#d8ac56" stroke-width="2" d="M204.051,-252C204.051,-252 160.776,-252 160.776,-252 154.776,-252 148.776,-246 148.776,-240 148.776,-240 148.776,-228 148.776,-228 148.776,-222 154.776,-216 160.776,-216 160.776,-216 204.051,-216 204.051,-216 210.051,-216 216.051,-222 216.051,-228 216.051,-228 216.051,-240 216.051,-240 216.051,-246 210.051,-252 204.051,-252"/>
<text text-anchor="middle" x="182.414" y="-231" font-family="sans" font-size="10.00">BAM_index</text>
</g>
<!-- 17&#45;&gt;18 -->
<g id="edge34" class="edge"><title>17&#45;&gt;18</title>
<path fill="none" stroke="grey" stroke-width="2" d="M159.076,-287.697C162.605,-279.728 166.869,-270.1 170.782,-261.264"/>
<polygon fill="grey" stroke="grey" stroke-width="2" points="173.99,-262.665 174.839,-252.104 167.589,-259.831 173.99,-262.665"/>
</g>
<!-- 18&#45;&gt;13 -->
<g id="edge26" class="edge"><title>18&#45;&gt;13</title>
<path fill="none" stroke="grey" stroke-width="2" d="M174.751,-215.697C171.222,-207.728 166.958,-198.1 163.045,-189.264"/>
<polygon fill="grey" stroke="grey" stroke-width="2" points="166.238,-187.831 158.988,-180.104 159.837,-190.665 166.238,-187.831"/>
</g>
<!-- 19 -->
<g id="node20" class="node"><title>19</title>
<path fill="none" stroke="#56d8a9" stroke-width="2" d="M490.315,-324C490.315,-324 454.512,-324 454.512,-324 448.512,-324 442.512,-318 442.512,-312 442.512,-312 442.512,-300 442.512,-300 442.512,-294 448.512,-288 454.512,-288 454.512,-288 490.315,-288 490.315,-288 496.315,-288 502.315,-294 502.315,-300 502.315,-300 502.315,-312 502.315,-312 502.315,-318 496.315,-324 490.315,-324"/>
<text text-anchor="middle" x="472.414" y="-303" font-family="sans" font-size="10.00">BAM_sort</text>
</g>
<!-- 19&#45;&gt;14 -->
<g id="edge27" class="edge"><title>19&#45;&gt;14</title>
<path fill="none" stroke="grey" stroke-width="2" d="M467.544,-287.979C464.849,-277.665 461.776,-264.189 460.414,-252 458.636,-236.099 458.636,-231.901 460.414,-216 461.372,-207.43 463.175,-198.223 465.099,-189.926"/>
<polygon fill="grey" stroke="grey" stroke-width="2" points="468.545,-190.568 467.544,-180.021 461.749,-188.89 468.545,-190.568"/>
</g>
<!-- 20 -->
<g id="node21" class="node"><title>20</title>
<path fill="none" stroke="#d8ac56" stroke-width="2" d="M525.051,-252C525.051,-252 481.776,-252 481.776,-252 475.776,-252 469.776,-246 469.776,-240 469.776,-240 469.776,-228 469.776,-228 469.776,-222 475.776,-216 481.776,-216 481.776,-216 525.051,-216 525.051,-216 531.051,-216 537.051,-222 537.051,-228 537.051,-228 537.051,-240 537.051,-240 537.051,-246 531.051,-252 525.051,-252"/>
<text text-anchor="middle" x="503.414" y="-231" font-family="sans" font-size="10.00">BAM_index</text>
</g>
<!-- 19&#45;&gt;20 -->
<g id="edge36" class="edge"><title>19&#45;&gt;20</title>
<path fill="none" stroke="grey" stroke-width="2" d="M480.076,-287.697C483.605,-279.728 487.869,-270.1 491.782,-261.264"/>
<polygon fill="grey" stroke="grey" stroke-width="2" points="494.99,-262.665 495.839,-252.104 488.589,-259.831 494.99,-262.665"/>
</g>
<!-- 20&#45;&gt;14 -->
<g id="edge28" class="edge"><title>20&#45;&gt;14</title>
<path fill="none" stroke="grey" stroke-width="2" d="M495.751,-215.697C492.222,-207.728 487.958,-198.1 484.045,-189.264"/>
<polygon fill="grey" stroke="grey" stroke-width="2" points="487.238,-187.831 479.988,-180.104 480.837,-190.665 487.238,-187.831"/>
</g>
<!-- 21 -->
<g id="node22" class="node"><title>21</title>
<path fill="none" stroke="#56d8a9" stroke-width="2" d="M811.315,-324C811.315,-324 775.512,-324 775.512,-324 769.512,-324 763.512,-318 763.512,-312 763.512,-312 763.512,-300 763.512,-300 763.512,-294 769.512,-288 775.512,-288 775.512,-288 811.315,-288 811.315,-288 817.315,-288 823.315,-294 823.315,-300 823.315,-300 823.315,-312 823.315,-312 823.315,-318 817.315,-324 811.315,-324"/>
<text text-anchor="middle" x="793.414" y="-303" font-family="sans" font-size="10.00">BAM_sort</text>
</g>
<!-- 21&#45;&gt;15 -->
<g id="edge29" class="edge"><title>21&#45;&gt;15</title>
<path fill="none" stroke="grey" stroke-width="2" d="M788.544,-287.979C785.849,-277.665 782.776,-264.189 781.414,-252 779.636,-236.099 779.636,-231.901 781.414,-216 782.372,-207.43 784.175,-198.223 786.099,-189.926"/>
<polygon fill="grey" stroke="grey" stroke-width="2" points="789.545,-190.568 788.544,-180.021 782.749,-188.89 789.545,-190.568"/>
</g>
<!-- 22 -->
<g id="node23" class="node"><title>22</title>
<path fill="none" stroke="#d8ac56" stroke-width="2" d="M846.051,-252C846.051,-252 802.776,-252 802.776,-252 796.776,-252 790.776,-246 790.776,-240 790.776,-240 790.776,-228 790.776,-228 790.776,-222 796.776,-216 802.776,-216 802.776,-216 846.051,-216 846.051,-216 852.051,-216 858.051,-222 858.051,-228 858.051,-228 858.051,-240 858.051,-240 858.051,-246 852.051,-252 846.051,-252"/>
<text text-anchor="middle" x="824.414" y="-231" font-family="sans" font-size="10.00">BAM_index</text>
</g>
<!-- 21&#45;&gt;22 -->
<g id="edge38" class="edge"><title>21&#45;&gt;22</title>
<path fill="none" stroke="grey" stroke-width="2" d="M801.076,-287.697C804.605,-279.728 808.869,-270.1 812.782,-261.264"/>
<polygon fill="grey" stroke="grey" stroke-width="2" points="815.99,-262.665 816.839,-252.104 809.589,-259.831 815.99,-262.665"/>
</g>
<!-- 22&#45;&gt;15 -->
<g id="edge30" class="edge"><title>22&#45;&gt;15</title>
<path fill="none" stroke="grey" stroke-width="2" d="M816.751,-215.697C813.222,-207.728 808.958,-198.1 805.045,-189.264"/>
<polygon fill="grey" stroke="grey" stroke-width="2" points="808.238,-187.831 800.988,-180.104 801.837,-190.665 808.238,-187.831"/>
</g>
<!-- 23 -->
<g id="node24" class="node"><title>23</title>
<path fill="none" stroke="#56d8a9" stroke-width="2" d="M1132.32,-324C1132.32,-324 1096.51,-324 1096.51,-324 1090.51,-324 1084.51,-318 1084.51,-312 1084.51,-312 1084.51,-300 1084.51,-300 1084.51,-294 1090.51,-288 1096.51,-288 1096.51,-288 1132.32,-288 1132.32,-288 1138.32,-288 1144.32,-294 1144.32,-300 1144.32,-300 1144.32,-312 1144.32,-312 1144.32,-318 1138.32,-324 1132.32,-324"/>
<text text-anchor="middle" x="1114.41" y="-303" font-family="sans" font-size="10.00">BAM_sort</text>
</g>
<!-- 23&#45;&gt;16 -->
<g id="edge31" class="edge"><title>23&#45;&gt;16</title>
<path fill="none" stroke="grey" stroke-width="2" d="M1109.54,-287.979C1106.85,-277.665 1103.78,-264.189 1102.41,-252 1100.64,-236.099 1100.64,-231.901 1102.41,-216 1103.37,-207.43 1105.18,-198.223 1107.1,-189.926"/>
<polygon fill="grey" stroke="grey" stroke-width="2" points="1110.55,-190.568 1109.54,-180.021 1103.75,-188.89 1110.55,-190.568"/>
</g>
<!-- 24 -->
<g id="node25" class="node"><title>24</title>
<path fill="none" stroke="#d8ac56" stroke-width="2" d="M1167.05,-252C1167.05,-252 1123.78,-252 1123.78,-252 1117.78,-252 1111.78,-246 1111.78,-240 1111.78,-240 1111.78,-228 1111.78,-228 1111.78,-222 1117.78,-216 1123.78,-216 1123.78,-216 1167.05,-216 1167.05,-216 1173.05,-216 1179.05,-222 1179.05,-228 1179.05,-228 1179.05,-240 1179.05,-240 1179.05,-246 1173.05,-252 1167.05,-252"/>
<text text-anchor="middle" x="1145.41" y="-231" font-family="sans" font-size="10.00">BAM_index</text>
</g>
<!-- 23&#45;&gt;24 -->
<g id="edge40" class="edge"><title>23&#45;&gt;24</title>
<path fill="none" stroke="grey" stroke-width="2" d="M1122.08,-287.697C1125.61,-279.728 1129.87,-270.1 1133.78,-261.264"/>
<polygon fill="grey" stroke="grey" stroke-width="2" points="1136.99,-262.665 1137.84,-252.104 1130.59,-259.831 1136.99,-262.665"/>
</g>
<!-- 24&#45;&gt;16 -->
<g id="edge32" class="edge"><title>24&#45;&gt;16</title>
<path fill="none" stroke="grey" stroke-width="2" d="M1137.75,-215.697C1134.22,-207.728 1129.96,-198.1 1126.04,-189.264"/>
<polygon fill="grey" stroke="grey" stroke-width="2" points="1129.24,-187.831 1121.99,-180.104 1122.84,-190.665 1129.24,-187.831"/>
</g>
<!-- 25 -->
<g id="node26" class="node"><title>25</title>
<path fill="none" stroke="#d85656" stroke-width="2" d="M181.854,-398C181.854,-398 120.973,-398 120.973,-398 114.973,-398 108.973,-392 108.973,-386 108.973,-386 108.973,-372 108.973,-372 108.973,-366 114.973,-360 120.973,-360 120.973,-360 181.854,-360 181.854,-360 187.854,-360 193.854,-366 193.854,-372 193.854,-372 193.854,-386 193.854,-386 193.854,-392 187.854,-398 181.854,-398"/>
<text text-anchor="middle" x="151.414" y="-386" font-family="sans" font-size="10.00">minimap2</text>
<text text-anchor="middle" x="151.414" y="-376" font-family="sans" font-size="10.00">genome: b73v5</text>
<text text-anchor="middle" x="151.414" y="-366" font-family="sans" font-size="10.00">sample: fas1</text>
</g>
<!-- 25&#45;&gt;17 -->
<g id="edge33" class="edge"><title>25&#45;&gt;17</title>
<path fill="none" stroke="grey" stroke-width="2" d="M151.414,-359.716C151.414,-351.973 151.414,-342.789 151.414,-334.274"/>
<polygon fill="grey" stroke="grey" stroke-width="2" points="154.914,-334.003 151.414,-324.003 147.914,-334.003 154.914,-334.003"/>
</g>
<!-- 26 -->
<g id="node27" class="node"><title>26</title>
<path fill="none" stroke="#d85656" stroke-width="2" d="M497.793,-398C497.793,-398 447.034,-398 447.034,-398 441.034,-398 435.034,-392 435.034,-386 435.034,-386 435.034,-372 435.034,-372 435.034,-366 441.034,-360 447.034,-360 447.034,-360 497.793,-360 497.793,-360 503.793,-360 509.793,-366 509.793,-372 509.793,-372 509.793,-386 509.793,-386 509.793,-392 503.793,-398 497.793,-398"/>
<text text-anchor="middle" x="472.414" y="-386" font-family="sans" font-size="10.00">minimap2</text>
<text text-anchor="middle" x="472.414" y="-376" font-family="sans" font-size="10.00">genome: b97</text>
<text text-anchor="middle" x="472.414" y="-366" font-family="sans" font-size="10.00">sample: fas1</text>
</g>
<!-- 26&#45;&gt;19 -->
<g id="edge35" class="edge"><title>26&#45;&gt;19</title>
<path fill="none" stroke="grey" stroke-width="2" d="M472.414,-359.716C472.414,-351.973 472.414,-342.789 472.414,-334.274"/>
<polygon fill="grey" stroke="grey" stroke-width="2" points="475.914,-334.003 472.414,-324.003 468.914,-334.003 475.914,-334.003"/>
</g>
<!-- 27 -->
<g id="node28" class="node"><title>27</title>
<path fill="none" stroke="#d85656" stroke-width="2" d="M833.231,-398C833.231,-398 753.596,-398 753.596,-398 747.596,-398 741.596,-392 741.596,-386 741.596,-386 741.596,-372 741.596,-372 741.596,-366 747.596,-360 753.596,-360 753.596,-360 833.231,-360 833.231,-360 839.231,-360 845.231,-366 845.231,-372 845.231,-372 845.231,-386 845.231,-386 845.231,-392 839.231,-398 833.231,-398"/>
<text text-anchor="middle" x="793.414" y="-386" font-family="sans" font-size="10.00">minimap2</text>
<text text-anchor="middle" x="793.414" y="-376" font-family="sans" font-size="10.00">genome: b73v5</text>
<text text-anchor="middle" x="793.414" y="-366" font-family="sans" font-size="10.00">sample: fas1&#45;natrev</text>
</g>
<!-- 27&#45;&gt;21 -->
<g id="edge37" class="edge"><title>27&#45;&gt;21</title>
<path fill="none" stroke="grey" stroke-width="2" d="M793.414,-359.716C793.414,-351.973 793.414,-342.789 793.414,-334.274"/>
<polygon fill="grey" stroke="grey" stroke-width="2" points="796.914,-334.003 793.414,-324.003 789.914,-334.003 796.914,-334.003"/>
</g>
<!-- 28 -->
<g id="node29" class="node"><title>28</title>
<path fill="none" stroke="#d85656" stroke-width="2" d="M1154.23,-398C1154.23,-398 1074.6,-398 1074.6,-398 1068.6,-398 1062.6,-392 1062.6,-386 1062.6,-386 1062.6,-372 1062.6,-372 1062.6,-366 1068.6,-360 1074.6,-360 1074.6,-360 1154.23,-360 1154.23,-360 1160.23,-360 1166.23,-366 1166.23,-372 1166.23,-372 1166.23,-386 1166.23,-386 1166.23,-392 1160.23,-398 1154.23,-398"/>
<text text-anchor="middle" x="1114.41" y="-386" font-family="sans" font-size="10.00">minimap2</text>
<text text-anchor="middle" x="1114.41" y="-376" font-family="sans" font-size="10.00">genome: b97</text>
<text text-anchor="middle" x="1114.41" y="-366" font-family="sans" font-size="10.00">sample: fas1&#45;natrev</text>
</g>
<!-- 28&#45;&gt;23 -->
<g id="edge39" class="edge"><title>28&#45;&gt;23</title>
<path fill="none" stroke="grey" stroke-width="2" d="M1114.41,-359.716C1114.41,-351.973 1114.41,-342.789 1114.41,-334.274"/>
<polygon fill="grey" stroke="grey" stroke-width="2" points="1117.91,-334.003 1114.41,-324.003 1110.91,-334.003 1117.91,-334.003"/>
</g>
</g>
</svg>
